<svg id="Layer_1" data-name="Layer 1" xmlns="http://www.w3.org/2000/svg" viewBox="0 0 80 80"><defs><style>.cls-1{fill:#656565;}</style></defs><g id="icon_bookmark"><path class="cls-1" d="M57.86,65.5a1.5,1.5,0,0,1-.76-.21L40,55.26l-17.1,10a1.48,1.48,0,0,1-1.51,0,1.51,1.51,0,0,1-.75-1.3V20.59a6.09,6.09,0,0,1,6.09-6.09H53.27a6.09,6.09,0,0,1,6.09,6.09V64a1.51,1.51,0,0,1-.75,1.3A1.53,1.53,0,0,1,57.86,65.5ZM40,52a1.5,1.5,0,0,1,.76.21l15.6,9.15V20.59a3.1,3.1,0,0,0-3.09-3.09H26.73a3.1,3.1,0,0,0-3.09,3.09V61.38l15.6-9.15A1.5,1.5,0,0,1,40,52Z"/><path class="cls-1" d="M34.2,45.87A2,2,0,0,1,33,45.49a2,2,0,0,1-.8-2l.93-5.42-3.93-3.83a2,2,0,0,1,1.11-3.41l5.43-.79,2.44-4.93a2,2,0,0,1,3.58,0l2.44,4.93,5.43.79a2,2,0,0,1,1.11,3.41l-3.93,3.83.93,5.42a2,2,0,0,1-2.91,2.11L40,43.08l-4.86,2.56A2,2,0,0,1,34.2,45.87Zm5.34-3Zm-6.77-9.3,2.86,2.79a2,2,0,0,1,.58,1.78L35.53,42l3.54-1.86a2,2,0,0,1,1.86,0L44.47,42l-.68-3.94a2,2,0,0,1,.58-1.77l2.86-2.79L43.28,33a2,2,0,0,1-1.51-1.09L40,28.29l-1.77,3.58a2,2,0,0,1-1.5,1.1Zm.48,4.06Zm13.5,0h0Z"/></g></svg>