<svg id="Layer_1" data-name="Layer 1" xmlns="http://www.w3.org/2000/svg" viewBox="0 0 80 80"><defs><style>.cls-1{fill:#656565;}</style></defs><g id="icon_celing"><path class="cls-1" d="M71.54,41.45,61.25,35.81V24.65A1.83,1.83,0,0,0,60.34,23l-11.2-6.14a1.53,1.53,0,0,0-1.56.05L8.38,41.5a1.85,1.85,0,0,0-.82,1.79,1.76,1.76,0,0,0,1.18,1.52L24.35,49.7V61.49A1.84,1.84,0,0,0,25.13,63a1.56,1.56,0,0,0,.87.27,1.54,1.54,0,0,0,.74-.19l14.7-8.06,6.51,2A1.55,1.55,0,0,0,49.14,57L54,54.3,58.86,57a1.53,1.53,0,0,0,1.61-.08,1.84,1.84,0,0,0,.78-1.54v-5l10.29-5.64a1.89,1.89,0,0,0,0-3.24ZM61.25,46.28V39.86l5.86,3.21Zm-3.2,6.25-.45-.25.45-.24ZM58,48.09l-4,2.17-4.86-2.67a1.55,1.55,0,0,0-1.48,0l-6.55,3.6L27.65,47V44.19L48.4,32.81,58,38.05ZM45.8,52.66l2.6-1.43,1.91,1.05-2.07,1.14ZM27.65,58.57V50.73l9.09,2.85ZM58,25.77V34l-8.81-4.83a1.55,1.55,0,0,0-1.48,0L25.26,41.45a1.83,1.83,0,0,0-.91,1.62v2.86L13.42,42.51l35-21.95Z"/></g></svg>