<svg id="Layer_1" data-name="Layer 1" xmlns="http://www.w3.org/2000/svg" viewBox="0 0 80 80"><defs><style>.cls-1{fill:#656565;}</style></defs><g id="icon_controlroom"><path class="cls-1" d="M63,15.82H17a6.5,6.5,0,0,0-6.49,6.49V57.69A6.5,6.5,0,0,0,17,64.18H63a6.5,6.5,0,0,0,6.49-6.49V22.31A6.5,6.5,0,0,0,63,15.82Zm3.49,41.87A3.49,3.49,0,0,1,63,61.18H17a3.49,3.49,0,0,1-3.49-3.49V22.31A3.49,3.49,0,0,1,17,18.82H63a3.49,3.49,0,0,1,3.49,3.49Z"/><path class="cls-1" d="M28,57.74l-.3,0Z"/><path class="cls-1" d="M28.31,57.71c-.11,0-.2,0-.31,0A1.55,1.55,0,0,0,28.31,57.71Z"/><path class="cls-1" d="M39.7,43.65l.3,0Z"/><path class="cls-1" d="M40,43.62l.3,0A1.45,1.45,0,0,0,40,43.62Z"/><path class="cls-1" d="M29.5,49.47V45.12a1.5,1.5,0,0,0-3,0v4.35a4.26,4.26,0,0,0,1.2,8.24l.3,0c.11,0,.2,0,.31,0a4.26,4.26,0,0,0,1.19-8.24ZM28,54.74a1.28,1.28,0,1,1,1.28-1.28A1.27,1.27,0,0,1,28,54.74Z"/><path class="cls-1" d="M40.3,43.65l-.3,0-.3,0a4.26,4.26,0,0,0-1.2,8.24v4.35a1.5,1.5,0,1,0,3,0V51.89a4.26,4.26,0,0,0-1.2-8.24ZM40,49.18a1.28,1.28,0,1,1,1.28-1.28A1.29,1.29,0,0,1,40,49.18Z"/><path class="cls-1" d="M53.5,46.49V44.92a1.5,1.5,0,0,0-3,0v1.57a4.26,4.26,0,0,0,0,8V56a1.5,1.5,0,0,0,3,0V54.48a4.27,4.27,0,0,0,0-8ZM52,51.76a1.28,1.28,0,1,1,1.27-1.28A1.28,1.28,0,0,1,52,51.76Z"/><path class="cls-1" d="M62,22.34H18a1.5,1.5,0,0,0-1.5,1.5V37.35a1.5,1.5,0,0,0,1.5,1.5H62a1.5,1.5,0,0,0,1.5-1.5V23.84A1.5,1.5,0,0,0,62,22.34ZM60.5,35.85H57.21V31.42a1.5,1.5,0,1,0-3,0v4.43H49.36V32.73a1.5,1.5,0,0,0-3,0v3.12H41.51V32.42a1.5,1.5,0,0,0-3,0v3.43H33.65V28.48a1.5,1.5,0,1,0-3,0v7.37H25.8V30.6a1.5,1.5,0,0,0-3,0v5.25H19.5V25.34h41Z"/></g></svg>