<svg id="Layer_1" data-name="Layer 1" xmlns="http://www.w3.org/2000/svg" viewBox="0 0 80 80"><defs><style>.cls-1{fill:#656565;}</style></defs><g id="icon_power"><path class="cls-1" d="M68.94,23.47a11.77,11.77,0,1,0-22.49,6.94,1.5,1.5,0,1,0,2.87-.89,8.76,8.76,0,1,1,11,5.8,1.5,1.5,0,0,0,.44,2.93,1.39,1.39,0,0,0,.44-.07,11.76,11.76,0,0,0,7.78-14.71Z"/><path class="cls-1" d="M55.42,34a1.5,1.5,0,0,0,1.5-1.5v-2.6h2.27a4.18,4.18,0,0,0,4.18-4.18v-.19a4.18,4.18,0,0,0-4.18-4.18H55.42a1.5,1.5,0,0,0-1.5,1.5v9.65A1.5,1.5,0,0,0,55.42,34Zm1.5-7.1V24.37h2.27a1.18,1.18,0,0,1,1.18,1.18v.19a1.18,1.18,0,0,1-1.18,1.18"/><path class="cls-1" d="M63.66,46.27l-9.33-10a4.74,4.74,0,0,0-3.73-1.82H42v-4a1.5,1.5,0,0,0-1.5-1.5H12a1.5,1.5,0,0,0-1.5,1.5V58.7A1.5,1.5,0,0,0,12,60.2h1.48a6.13,6.13,0,0,0,11.88,0H45.61a6.13,6.13,0,0,0,11.88,0h.95a5.45,5.45,0,0,0,5.62-5.26V47.3A1.51,1.51,0,0,0,63.66,46.27Zm-2.6,8.67a2.46,2.46,0,0,1-2.62,2.26h-.95a6.13,6.13,0,0,0-11.88,0H42V50.34h7.52a1.5,1.5,0,0,0,0-3H42V37.47H50.6a1.75,1.75,0,0,1,1.38.68.64.64,0,0,0,.1.13l9,9.61ZM54.28,60.2a3.1,3.1,0,0,1-5.46,0,3.05,3.05,0,0,1-.4-1.5h0a3.05,3.05,0,0,1,.4-1.5,3.1,3.1,0,0,1,5.46,0,3.05,3.05,0,0,1,.4,1.5h0A3.05,3.05,0,0,1,54.28,60.2Zm-28.89-3a6.13,6.13,0,0,0-11.86-.08V32H39V57.2Zm-3.21,3a3.1,3.1,0,0,1-5.46,0,3.05,3.05,0,0,1-.4-1.5h0a3.05,3.05,0,0,1,.4-1.5,3.1,3.1,0,0,1,5.46,0,3.05,3.05,0,0,1,.4,1.5h0A3.05,3.05,0,0,1,22.18,60.2Z"/><path class="cls-1" d="M29.79,43.92H28.28c-.3,0-.5-.23-.38-.44l1.85-3.09c.33-.53-.2-1.14-1-1.14H24.83a1.09,1.09,0,0,0-1,.57l-2.51,6.09c-.22.51.06,1.17.94,1.17h3a.38.38,0,0,1,.38.45L24.21,51.7c-.11.34.49.53.74.24l5.75-6.78C31.15,44.62,30.64,43.92,29.79,43.92Z"/></g></svg>