<svg id="Layer_1" data-name="Layer 1" xmlns="http://www.w3.org/2000/svg" viewBox="0 0 80 80"><defs><style>.cls-1{fill:#656565;}</style></defs><g id="icon_paint"><path class="cls-1" d="M61.06,10.6H18.94A4.36,4.36,0,0,0,14.58,15V25.1a4.36,4.36,0,0,0,4.36,4.36H56.76v3.68H40a1.5,1.5,0,0,0-1.5,1.5v6.19h-5a1.5,1.5,0,0,0-1.5,1.5V62.2a7.21,7.21,0,0,0,7.2,7.2h1.6A7.21,7.21,0,0,0,48,62.2V42.33a1.5,1.5,0,0,0-1.5-1.5h-5V36.14H58.26a1.5,1.5,0,0,0,1.5-1.5V29.46h1.3a4.36,4.36,0,0,0,4.36-4.36V15A4.36,4.36,0,0,0,61.06,10.6ZM45,62.2a4.2,4.2,0,0,1-4.2,4.2H39.2A4.2,4.2,0,0,1,35,62.2V43.83H45ZM62.42,25.1a1.36,1.36,0,0,1-1.36,1.36H18.94a1.36,1.36,0,0,1-1.36-1.36V15a1.36,1.36,0,0,1,1.36-1.36H61.06A1.36,1.36,0,0,1,62.42,15Z"/><path class="cls-1" d="M25,15.28a1.5,1.5,0,0,0-1.5,1.5V20a1.5,1.5,0,0,0,3,0V16.78A1.5,1.5,0,0,0,25,15.28Z"/><path class="cls-1" d="M31.11,18.46a1.5,1.5,0,0,0-1.5,1.5v3.19a1.5,1.5,0,0,0,3,0V20A1.5,1.5,0,0,0,31.11,18.46Z"/></g></svg>