<svg id="Layer_1" data-name="Layer 1" xmlns="http://www.w3.org/2000/svg" viewBox="0 0 80 80"><defs><style>.cls-1{fill:#656565;}</style></defs><g id="icon_toilet"><path class="cls-1" d="M62.34,10.5H44.93a4.31,4.31,0,0,0-4.31,4.31V32H19.43a4.63,4.63,0,0,0-4.63,4.63v3.43a1.49,1.49,0,0,0-1.45,1.49,17,17,0,0,0,17,17h3.33l-1.45,9.22a1.5,1.5,0,0,0,1.48,1.73H59.44A1.47,1.47,0,0,0,60.58,69a1.5,1.5,0,0,0,.34-1.22L59.5,59.38a8.92,8.92,0,0,0,7.15-8.72V14.81A4.31,4.31,0,0,0,62.34,10.5ZM57.76,56.55a1.49,1.49,0,0,0-1.48,1.75l1.38,8.2H35.47l1.45-9.21a1.5,1.5,0,0,0-1.48-1.74H30.35A14,14,0,0,1,16.43,43.06H63.65v7.6A5.89,5.89,0,0,1,57.76,56.55Zm-40-19.91A1.63,1.63,0,0,1,19.43,35H40.62v5.05H17.8ZM43.62,32V14.81a1.31,1.31,0,0,1,1.31-1.31H62.34a1.31,1.31,0,0,1,1.31,1.31V40.06h-20V32Z"/><path class="cls-1" d="M48.85,25.57h4.78a1.5,1.5,0,0,0,0-3H48.85a1.5,1.5,0,0,0,0,3Z"/></g></svg>