<?xml version="1.0" encoding="utf-8"?>
<!-- Generator: Adobe Illustrator 24.3.0, SVG Export Plug-In . SVG Version: 6.00 Build 0)  -->
<svg version="1.1" id="Layer_1" xmlns="http://www.w3.org/2000/svg" xmlns:xlink="http://www.w3.org/1999/xlink" x="0px" y="0px"
	 viewBox="0 0 100 100" style="enable-background:new 0 0 100 100;" xml:space="preserve">
<style type="text/css">
	.st0{fill:#FFFFFF;}
	.st1{fill:#A6412F;}
	.st2{fill:#102448;}
</style>
<g>
	<circle class="st0" cx="47.2" cy="49.62" r="12.59"/>
	<path class="st1" d="M47.11,36.97c-7.2,0-13.03,5.83-13.03,13.03c0,7.2,5.83,13.03,13.03,13.03c7.2,0,13.03-5.83,13.03-13.03
		C60.15,42.8,54.31,36.97,47.11,36.97z M45.47,48.98c-2.38,2.3-5.55,2.89-7.08,1.31c-1.53-1.58-0.84-4.73,1.55-7.04
		c2.38-2.3,5.55-2.89,7.08-1.31C48.54,43.53,47.85,46.67,45.47,48.98z M54.66,57.61c-1.33,1.29-3.1,1.62-3.96,0.73
		c-0.85-0.89-0.46-2.64,0.87-3.93c1.33-1.29,3.1-1.61,3.95-0.73C56.37,54.57,55.99,56.32,54.66,57.61z"/>
	<path class="st2" d="M47.73,72.6h0.14c7.14-0.03,13.41-2.05,18.7-4.86L52.93,80.97c-1.35,1.31-1.39,3.48-0.07,4.83
		c1.32,1.35,3.48,1.39,4.83,0.07l13.49-13.1l-4.98,13.49c-0.65,1.77,0.25,3.74,2.02,4.39c1.77,0.65,3.74-0.25,4.39-2.02l6.46-17.5
		v8.43c0,1.89,1.53,3.42,3.42,3.42c1.89,0,2.88-1.58,3.42-3.42c0,0,5.19-16.14,0-29.37S64.74,28.89,53.71,27.46l-0.34-0.02
		c-1.29,0-2.34,1.05-2.34,2.34c0,1.06,0.7,1.95,1.67,2.24l0.12,0.03c7.74,2.21,13.4,9.34,13.4,17.78c0,10.14-8.17,18.38-18.29,18.49
		l-0.2,0c-1.19,0-2.15,0.96-2.15,2.13S46.54,72.6,47.73,72.6z"/>
	<path class="st2" d="M46.51,27.4h-0.14c-7.14,0.03-13.41,2.05-18.7,4.86L41.3,19.03c1.35-1.31,1.39-3.48,0.07-4.83
		c-1.32-1.35-3.48-1.39-4.83-0.07l-13.49,13.1l4.98-13.49c0.65-1.77-0.25-3.74-2.02-4.39c-1.77-0.65-3.74,0.25-4.39,2.02l-6.46,17.5
		v-8.43c0-1.89-1.53-3.42-3.42-3.42c-1.89,0-2.88,1.58-3.42,3.42c0,0-5.19,16.14,0,29.37S29.5,71.11,40.52,72.54l0.34,0.02
		c1.29,0,2.34-1.05,2.34-2.34c0-1.06-0.7-1.95-1.67-2.24l-0.12-0.03c-7.74-2.21-13.4-9.34-13.4-17.78
		c0-10.14,8.17-18.38,18.29-18.49l0.2,0c1.19,0,2.15-0.96,2.15-2.13S47.7,27.4,46.51,27.4z"/>
	<g>
		<path d="M46.41,14.55c0,0.1,0,0.22,0,0.36c0.01,0.14,0.01,0.31,0.01,0.51c0.02,0.53,0.04,1.34,0.06,2.44
			c0.02,0.72,0.05,1.8,0.08,3.22c0.01,0.13,0.02,0.24,0.06,0.3c0.03,0.07,0.12,0.1,0.28,0.09c0.4-0.03,1-0.08,1.8-0.15
			c0.31-0.02,0.91-0.07,1.8-0.14c0.1-0.01,0.19-0.01,0.28,0.02c0.08,0.03,0.16,0.1,0.26,0.22c0.12,0.17,0.22,0.53,0.29,1.1
			c0.03,0.32,0.05,0.49,0.05,0.53c0.01,0.22-0.05,0.39-0.17,0.5c-0.36,0.26-1.62,0.47-3.79,0.63c-0.38,0.02-0.69,0.04-0.94,0.06
			c-0.25,0.01-0.5,0.02-0.74,0.03c-0.14,0.01-0.27-0.04-0.38-0.13c-0.11-0.09-0.16-0.21-0.16-0.35c0-0.01-0.01-0.04-0.02-0.1
			c0-0.05,0-0.09-0.01-0.13c-0.01-0.11-0.03-0.27-0.04-0.49c-0.02-0.38-0.04-0.91-0.06-1.6c-0.01-1.25-0.01-2.78-0.01-4.6
			c0-0.51-0.01-0.99-0.02-1.43c0-0.44,0.01-0.77,0.04-0.97c0.05-0.11,0.12-0.17,0.19-0.2c0.2-0.06,0.37-0.09,0.52-0.09
			C46.14,14.16,46.34,14.29,46.41,14.55z"/>
		<path d="M58.58,15.49c0.07,0,0.16,0.01,0.29,0.02c0.24,0.03,0.43,0.08,0.58,0.14c0.23,0.11,0.35,0.26,0.36,0.46
			c-0.01,0.41-0.08,1.28-0.23,2.61c-0.13,1.19-0.27,2.53-0.41,4.04c0,0.05,0,0.12-0.02,0.22c0,0.03-0.01,0.06-0.01,0.1
			c-0.04,0.29-0.13,0.52-0.28,0.69c-0.16,0.2-0.36,0.32-0.6,0.35c-0.44,0.03-0.99,0.04-1.65,0.04c-0.67-0.01-1.2-0.05-1.59-0.1
			c-0.04-0.01-0.1-0.01-0.19-0.03c-0.14-0.02-0.3-0.05-0.46-0.08c-0.17-0.02-0.37-0.14-0.61-0.35c-0.24-0.33-0.38-0.82-0.42-1.47
			c-0.05-0.61-0.06-1.63-0.03-3.05c0.03-1.43,0.08-2.46,0.14-3.07c0.01-0.04,0.01-0.07,0.01-0.1c0.01-0.04,0.01-0.07,0.01-0.1
			c0-0.02,0-0.03-0.01-0.04c0.01-0.06,0.03-0.11,0.07-0.17c0.04-0.06,0.15-0.1,0.34-0.11c0.39-0.04,1.08-0.07,2.06-0.07
			C56.92,15.43,57.8,15.45,58.58,15.49z M56.13,18.27c0.01-0.22,0.04-0.67,0.1-1.36c0-0.11-0.01-0.19-0.05-0.24
			c-0.04-0.04-0.13-0.08-0.25-0.11c-0.01,0-0.03,0-0.06-0.01c-0.2-0.03-0.43-0.02-0.69,0.02c-0.11,0.01-0.21,0.05-0.31,0.1
			c-0.11,0.06-0.16,0.15-0.17,0.25c-0.02,0.16-0.04,0.33-0.06,0.52c-0.02,0.19-0.03,0.37-0.05,0.55c-0.13,1.05-0.16,2.14-0.07,3.27
			c0.08,1.13,0.22,1.71,0.42,1.73c0.07,0.01,0.18-0.03,0.34-0.11c0.1-0.05,0.18-0.16,0.24-0.33c0.04-0.17,0.12-0.58,0.23-1.24
			c0.02-0.14,0.05-0.37,0.09-0.67C55.97,19.75,56.07,18.95,56.13,18.27z"/>
		<path d="M64.06,15.94c0.67,0,1.5,0.14,2.49,0.4c0.12,0.03,0.23,0.06,0.34,0.09c0.31,0.1,0.48,0.18,0.5,0.24
			c0.05,0.18-0.03,0.65-0.22,1.41c-0.11,0.44-0.21,0.71-0.28,0.82c-0.14,0.19-0.29,0.26-0.46,0.22c-0.13-0.03-0.25-0.08-0.35-0.15
			c-0.11-0.07-0.17-0.15-0.18-0.24c0-0.06,0.03-0.19,0.09-0.38c0.06-0.19,0.09-0.35,0.1-0.47c0.01-0.07,0-0.11-0.04-0.13
			c-0.02-0.02-0.05-0.03-0.08-0.04c-0.13-0.04-0.25-0.07-0.38-0.1c-0.11-0.02-0.21-0.04-0.29-0.04c-0.05,0.01-0.1,0.05-0.13,0.09
			c-0.07,0.14-0.31,0.85-0.71,2.12c-0.41,1.27-0.78,2.54-1.1,3.8c-0.09,0.32-0.21,0.79-0.38,1.43c-0.04,0.18-0.04,0.3-0.01,0.34
			c0.02,0.06,0.08,0.1,0.17,0.13c0.17,0.05,0.43,0.13,0.78,0.22c0.34,0.1,0.61,0.19,0.8,0.24c0.05,0,0.09,0.03,0.12,0.07
			c0.03,0.03,0.05,0.07,0.05,0.12c0.01,0.04,0,0.1-0.02,0.16c-0.03,0.09-0.09,0.22-0.17,0.37c-0.16,0.25-0.29,0.4-0.39,0.44
			c-0.05,0.02-0.1,0.02-0.17,0.01c-0.07,0-0.13-0.01-0.17-0.02c-0.25-0.07-0.8-0.22-1.64-0.47c-0.15-0.05-0.29-0.09-0.41-0.13
			c-0.94-0.29-1.45-0.47-1.52-0.56c-0.13-0.12-0.2-0.27-0.21-0.46c0-0.18,0.07-0.57,0.22-1.16c0.14-0.66,0.46-1.83,0.95-3.51
			c0.18-0.62,0.34-1.18,0.5-1.68c0.36-1.18,0.63-2.01,0.82-2.5c0.18-0.4,0.4-0.63,0.66-0.69C63.39,15.95,63.64,15.94,64.06,15.94z"
			/>
		<path d="M70.58,18.11c0.32,0.1,0.97,0.39,1.97,0.87c0.45,0.22,1.13,0.54,2.03,0.98c0.2,0.1,0.26,0.27,0.17,0.51
			c-0.03,0.09-0.1,0.24-0.2,0.45c-0.16,0.33-0.39,0.79-0.7,1.39c-0.51,0.99-1.23,2.34-2.16,4.06c-0.75,1.39-1.2,2.15-1.35,2.28
			c-0.11,0.07-0.28,0.09-0.5,0.03c-0.11-0.03-0.22-0.07-0.32-0.12c-0.06-0.03-0.12-0.06-0.19-0.11c-0.15-0.09-0.25-0.17-0.29-0.22
			c-0.02-0.04-0.03-0.09-0.03-0.13c0-0.04,0.01-0.09,0.04-0.14c0.23-0.49,0.58-1.16,1.05-2.01c0.03-0.1,0-0.19-0.09-0.25
			c-0.07-0.05-0.19-0.11-0.35-0.18c-0.52-0.29-0.89-0.48-1.09-0.56c-0.04-0.01-0.09,0.01-0.15,0.05c-0.07,0.08-0.23,0.36-0.48,0.83
			c-0.28,0.49-0.5,0.72-0.66,0.71c-0.17-0.02-0.35-0.06-0.54-0.11c-0.18-0.09-0.29-0.24-0.32-0.46c-0.02-0.19,0.13-0.6,0.44-1.25
			c0.32-0.66,0.79-1.61,1.43-2.84c1.06-2.07,1.72-3.29,1.99-3.67C70.33,18.11,70.44,18.07,70.58,18.11z M71.72,23.16
			c0.09-0.16,0.27-0.49,0.54-0.99c0.03-0.05,0.04-0.1,0.02-0.15c-0.01-0.06-0.04-0.1-0.11-0.13c-0.03-0.02-0.08-0.04-0.14-0.07
			c-0.05-0.02-0.2-0.08-0.43-0.17c-0.23-0.09-0.43-0.17-0.58-0.23c-0.1-0.05-0.25-0.11-0.45-0.19c-0.05-0.02-0.11-0.04-0.17-0.04
			c-0.07,0.01-0.14,0.08-0.21,0.2c-0.23,0.49-0.58,1.21-1.05,2.17c-0.03,0.07-0.04,0.13-0.02,0.17c0.02,0.04,0.07,0.08,0.14,0.11
			c0.63,0.37,1.01,0.58,1.16,0.65c0.15,0.07,0.23,0.11,0.25,0.11c0.04,0,0.08,0,0.12-0.01c0.04-0.01,0.08-0.04,0.12-0.09
			c0.09-0.13,0.2-0.28,0.31-0.48C71.34,23.85,71.51,23.56,71.72,23.16z"/>
		<path d="M82.17,25.92c-0.08,0.14-0.17,0.28-0.28,0.42c-0.11,0.15-0.24,0.3-0.38,0.47c-0.3,0.33-0.51,0.52-0.63,0.56
			c-0.11,0.07-0.2,0.1-0.27,0.07c-0.07-0.02-0.11-0.04-0.13-0.04c-0.41-0.23-1-0.58-1.77-1.05c-0.03,0.01-0.24,0.26-0.61,0.75
			c-0.38,0.5-0.94,1.23-1.68,2.19c-0.82,1.1-1.4,1.85-1.74,2.27c-0.11,0.13-0.31,0.09-0.61-0.14c-0.02-0.02-0.05-0.04-0.08-0.06
			c-0.35-0.27-0.47-0.48-0.36-0.64c0.29-0.39,0.86-1.16,1.71-2.33c1.38-1.86,2.08-2.84,2.1-2.92c-0.81-0.63-1.36-1.08-1.65-1.36
			c-0.12-0.17-0.14-0.31-0.07-0.41c0.25-0.31,0.5-0.57,0.77-0.8c0.25-0.23,0.47-0.39,0.66-0.48c0.05-0.01,0.1-0.02,0.15-0.01
			c0.05,0.01,0.11,0.03,0.19,0.05c0.15,0.06,0.37,0.19,0.67,0.38c0.31,0.19,0.81,0.53,1.5,1.01c0.6,0.4,1.09,0.74,1.47,0.99
			c0.38,0.25,0.64,0.43,0.81,0.54c0.05,0.03,0.09,0.06,0.12,0.09c0.15,0.11,0.22,0.18,0.21,0.21
			C82.24,25.73,82.21,25.81,82.17,25.92z"/>
		<path d="M82.96,30.97c0.06,0.06,0.11,0.11,0.15,0.16c0.04,0.04,0.08,0.09,0.13,0.14c0.04,0.07,0.07,0.12,0.08,0.17
			c0,0.04-0.02,0.1-0.05,0.17c-0.09,0.15-0.2,0.3-0.35,0.45l-0.23,0.22c-0.2,0.18-0.5,0.44-0.91,0.79
			c-0.46,0.37-0.95,0.81-1.49,1.33c-0.09,0.09-0.21,0.2-0.34,0.33c-0.15,0.13-0.27,0.24-0.34,0.33c-0.33,0.34-0.53,0.53-0.59,0.57
			c-0.1,0.04-0.18,0.04-0.25-0.01c-0.17-0.1-0.43-0.3-0.75-0.6c-0.17-0.17-0.3-0.29-0.37-0.37c-0.07-0.06-0.12-0.11-0.15-0.14
			c-0.02-0.03-0.03-0.09-0.02-0.16c0.02-0.08,0.05-0.15,0.12-0.21c0.07-0.07,0.13-0.13,0.18-0.19c0.01-0.01,0.03-0.03,0.08-0.08
			c0.2-0.19,0.78-0.73,1.73-1.6c0.77-0.7,1.32-1.19,1.64-1.47c0.17-0.15,0.31-0.26,0.42-0.34c0.17-0.11,0.31-0.15,0.41-0.11
			C82.23,30.43,82.53,30.64,82.96,30.97z M85.21,28.87c0.06,0.06,0.11,0.11,0.15,0.16c0.04,0.04,0.08,0.09,0.13,0.14
			c0.04,0.07,0.07,0.12,0.08,0.17c0,0.04-0.02,0.1-0.05,0.17c-0.04,0.05-0.09,0.12-0.18,0.23c-0.09,0.1-0.18,0.19-0.26,0.27
			c-0.17,0.19-0.31,0.34-0.41,0.43c-0.08,0.08-0.14,0.13-0.18,0.15c-0.1,0.04-0.18,0.03-0.24-0.03c-0.17-0.09-0.42-0.29-0.75-0.6
			c-0.17-0.16-0.29-0.28-0.37-0.35c-0.07-0.08-0.12-0.13-0.14-0.15c-0.03-0.03-0.03-0.08-0.02-0.16c0.01-0.07,0.04-0.14,0.11-0.2
			c0.32-0.31,0.52-0.5,0.62-0.57c0.08-0.07,0.14-0.13,0.2-0.17c0.17-0.11,0.31-0.15,0.41-0.11C84.48,28.34,84.79,28.54,85.21,28.87z
			"/>
		<path d="M90.24,36.16c0.04,0.05,0.1,0.13,0.16,0.24c0.13,0.2,0.21,0.38,0.26,0.53c0.06,0.25,0.02,0.43-0.12,0.57
			c-0.32,0.25-1.04,0.75-2.15,1.49c-1,0.65-2.12,1.41-3.37,2.26c-0.04,0.03-0.09,0.08-0.18,0.13c-0.02,0.02-0.05,0.03-0.09,0.05
			c-0.25,0.15-0.48,0.23-0.71,0.22c-0.26,0-0.48-0.08-0.66-0.24c-0.3-0.32-0.66-0.74-1.08-1.25c-0.42-0.52-0.73-0.95-0.94-1.29
			c-0.02-0.03-0.05-0.09-0.1-0.16c-0.08-0.12-0.15-0.26-0.23-0.4c-0.09-0.15-0.13-0.38-0.12-0.69c0.11-0.39,0.39-0.82,0.86-1.27
			c0.44-0.43,1.21-1.09,2.33-1.97c1.12-0.89,1.94-1.51,2.46-1.85c0.03-0.02,0.06-0.04,0.09-0.05c0.03-0.02,0.06-0.04,0.09-0.05
			c0.02-0.01,0.03-0.02,0.03-0.04c0.05-0.03,0.11-0.05,0.17-0.05c0.07-0.01,0.17,0.05,0.3,0.19c0.28,0.28,0.74,0.79,1.37,1.55
			C89.22,34.84,89.77,35.53,90.24,36.16z M86.53,36.04c0.18-0.13,0.55-0.4,1.11-0.79c0.08-0.06,0.14-0.13,0.15-0.2
			c0.01-0.06-0.02-0.15-0.08-0.26c-0.01-0.01-0.02-0.02-0.03-0.05c-0.11-0.17-0.26-0.34-0.46-0.52c-0.08-0.07-0.17-0.13-0.27-0.17
			c-0.12-0.04-0.22-0.03-0.3,0.03c-0.14,0.09-0.28,0.18-0.43,0.29c-0.16,0.11-0.31,0.21-0.45,0.31c-0.9,0.57-1.75,1.24-2.56,2.03
			c-0.82,0.78-1.18,1.26-1.07,1.43c0.04,0.06,0.14,0.12,0.3,0.19c0.11,0.05,0.24,0.04,0.41-0.03c0.16-0.07,0.52-0.28,1.1-0.61
			c0.12-0.08,0.31-0.2,0.58-0.36C85.29,36.86,85.96,36.43,86.53,36.04z"/>
		<path d="M93.83,47.27c-0.27,0.11-0.7,0.3-1.29,0.54c-0.59,0.25-1.22,0.49-1.9,0.74c-1.02,0.38-1.81,0.62-2.37,0.73
			c-0.45,0.09-0.77,0.1-0.94,0.01c-0.14-0.09-0.24-0.31-0.31-0.66c-0.05-0.25-0.06-0.42-0.03-0.51c0.03-0.1,0.14-0.26,0.33-0.48
			c0.2-0.25,0.77-0.76,1.7-1.54c1.14-0.93,1.69-1.45,1.67-1.55c0-0.01-0.01-0.02-0.02-0.03c-0.03-0.02-1.06,0.14-3.07,0.48
			c-2.01,0.35-3.1,0.48-3.25,0.38c-0.09-0.06-0.15-0.17-0.19-0.33c-0.04-0.21-0.07-0.46-0.08-0.75c-0.04-0.51-0.03-0.82,0.01-0.91
			c0.07-0.22,0.41-0.41,1.02-0.56c0.18-0.05,0.4-0.1,0.68-0.15c0.23-0.05,0.63-0.12,1.22-0.23c0.59-0.1,1.04-0.18,1.36-0.25
			c2.59-0.5,3.94-0.71,4.04-0.65c0.09,0.06,0.23,0.43,0.4,1.11c0.04,0.16,0.1,0.4,0.18,0.73c0.02,0.06,0.03,0.14,0.02,0.23
			c-0.01,0.09-0.05,0.17-0.12,0.23c-0.25,0.23-0.74,0.69-1.47,1.39c-1.37,1.28-2.13,1.99-2.28,2.12c-0.44,0.38-0.68,0.61-0.7,0.69
			l0,0.01c-0.01,0.06,0.05,0.08,0.16,0.07c0.92-0.31,2.08-0.72,3.49-1.24c0.87-0.34,1.41-0.54,1.6-0.61
			c0.14-0.03,0.23,0.05,0.27,0.23c0.01,0.06,0.02,0.12,0.02,0.19C94,47.02,93.94,47.21,93.83,47.27z"/>
	</g>
	<g>
		<path d="M20.2,67.33c0.88,0.59,1.42,0.98,1.62,1.17c0.21,0.2,0.34,0.48,0.41,0.83c0.1,0.47,0.1,0.81,0.01,1.03
			c-0.08,0.23-0.36,0.59-0.83,1.08c-0.19,0.19-0.46,0.48-0.83,0.87c0.05,0.03,0.15,0.1,0.3,0.21c0.1,0.07,0.17,0.12,0.2,0.15
			c0.18,0.17,0.19,0.44,0.02,0.8c-0.18,0.36-0.67,1.08-1.45,2.17c-0.97,1.36-1.56,2.15-1.76,2.37c-0.04,0.04-0.08,0.07-0.11,0.09
			c-0.03,0.03-0.06,0.06-0.09,0.07c-0.01,0.01-0.04,0.03-0.09,0.03c-0.03,0.01-0.06,0.01-0.07,0.01c-0.01,0-0.05,0-0.11,0.01
			c-0.06-0.01-0.1-0.01-0.11-0.01c-0.3,0.01-0.57-0.08-0.82-0.25c-0.18-0.12-0.94-0.54-2.29-1.27c-1.34-0.72-2.09-1.13-2.25-1.24
			c-0.28-0.17-0.44-0.28-0.5-0.34c-0.26-0.25-0.21-0.61,0.14-1.11c0.34-0.49,1.3-1.61,2.89-3.35c1.43-1.56,2.36-2.58,2.8-3.04
			c0.78-0.81,1.25-1.23,1.42-1.24C18.79,66.39,19.3,66.7,20.2,67.33z M19.36,73.98c0.11-0.17,0.16-0.28,0.18-0.35
			c0.01-0.07-0.02-0.14-0.09-0.2c-0.01-0.01-0.03-0.03-0.04-0.04c-0.4-0.36-1.03-0.7-1.87-1.03c-0.38-0.13-0.66-0.14-0.83-0.05
			c-0.07,0.04-0.23,0.2-0.48,0.46c-0.39,0.41-0.81,0.88-1.25,1.42c-0.45,0.53-0.68,0.83-0.67,0.89c0,0.04,0.04,0.1,0.12,0.17
			c0.26,0.25,0.74,0.55,1.45,0.91c0.72,0.36,1.17,0.51,1.33,0.47c0.02-0.01,0.09-0.07,0.2-0.19C18.05,75.75,18.7,74.93,19.36,73.98z
			 M20.55,70.67c0.11-0.13,0.35-0.4,0.7-0.79c0.03-0.04,0.03-0.08,0.02-0.1c0-0.03-0.03-0.07-0.09-0.13
			c-0.13-0.13-0.29-0.26-0.46-0.4c-0.17-0.13-0.36-0.25-0.56-0.38c-0.03-0.03-0.06-0.04-0.08-0.04c-0.03-0.01-0.07,0-0.12,0.04
			c-0.21,0.22-0.52,0.54-0.94,0.98c-0.67,0.7-0.99,1.09-0.96,1.16c0,0.01,0.01,0.03,0.04,0.06c0.12,0.11,0.37,0.24,0.74,0.37
			c0.38,0.13,0.62,0.18,0.73,0.14c0.13-0.06,0.41-0.3,0.81-0.72C20.41,70.82,20.47,70.76,20.55,70.67z"/>
		<path d="M25.97,72.67c0.31,0.11,0.96,0.42,1.94,0.93c0.44,0.23,1.11,0.58,2,1.04c0.2,0.1,0.25,0.28,0.15,0.52
			c-0.04,0.09-0.11,0.24-0.21,0.44c-0.17,0.32-0.42,0.78-0.75,1.37c-0.54,0.97-1.3,2.3-2.29,3.98c-0.79,1.37-1.27,2.11-1.43,2.24
			c-0.11,0.07-0.28,0.08-0.5,0.02c-0.11-0.04-0.22-0.08-0.32-0.13c-0.06-0.03-0.12-0.07-0.19-0.11c-0.14-0.1-0.24-0.17-0.29-0.23
			c-0.02-0.04-0.03-0.09-0.03-0.13c0-0.04,0.01-0.09,0.04-0.14c0.25-0.48,0.62-1.14,1.11-1.98c0.03-0.1,0.01-0.19-0.08-0.25
			c-0.07-0.05-0.19-0.11-0.34-0.19c-0.51-0.31-0.87-0.51-1.07-0.59c-0.04-0.01-0.09,0.01-0.16,0.05c-0.07,0.08-0.24,0.35-0.51,0.81
			c-0.29,0.48-0.52,0.71-0.68,0.69c-0.17-0.02-0.35-0.07-0.53-0.13c-0.18-0.09-0.28-0.25-0.31-0.47c-0.01-0.19,0.15-0.6,0.48-1.23
			c0.34-0.65,0.85-1.58,1.52-2.79c1.13-2.03,1.83-3.23,2.11-3.61C25.73,72.67,25.84,72.64,25.97,72.67z M26.95,77.76
			c0.09-0.16,0.28-0.48,0.57-0.97c0.04-0.05,0.04-0.1,0.03-0.15c0-0.06-0.04-0.1-0.11-0.14c-0.03-0.02-0.08-0.04-0.14-0.07
			c-0.05-0.03-0.19-0.09-0.42-0.19c-0.23-0.1-0.42-0.18-0.57-0.25c-0.09-0.05-0.24-0.12-0.45-0.2c-0.05-0.03-0.11-0.04-0.17-0.04
			c-0.07,0.01-0.14,0.07-0.22,0.2c-0.25,0.48-0.62,1.19-1.12,2.14c-0.04,0.07-0.04,0.12-0.02,0.17c0.02,0.04,0.07,0.08,0.13,0.12
			c0.61,0.39,0.99,0.62,1.14,0.69c0.15,0.08,0.23,0.11,0.25,0.11c0.04,0,0.08,0,0.12,0c0.04-0.01,0.08-0.04,0.12-0.08
			c0.1-0.12,0.2-0.28,0.32-0.47C26.54,78.44,26.72,78.15,26.95,77.76z"/>
		<path d="M37.59,77.81c0,0.29-0.01,0.76-0.02,1.4c-0.01,0.64-0.04,1.32-0.09,2.04c-0.07,1.09-0.16,1.91-0.29,2.47
			c-0.1,0.45-0.22,0.74-0.37,0.87c-0.14,0.09-0.38,0.09-0.73,0.02c-0.24-0.05-0.4-0.11-0.48-0.18c-0.08-0.07-0.19-0.23-0.31-0.5
			c-0.14-0.29-0.39-1.01-0.72-2.18c-0.39-1.42-0.64-2.13-0.74-2.16c-0.01,0-0.02,0-0.03,0.01c-0.03,0.02-0.3,1.02-0.8,3
			c-0.49,1.98-0.81,3.03-0.96,3.13c-0.09,0.06-0.22,0.07-0.38,0.04c-0.21-0.05-0.45-0.12-0.72-0.23c-0.48-0.17-0.76-0.3-0.83-0.37
			c-0.17-0.16-0.21-0.54-0.1-1.16c0.03-0.18,0.07-0.41,0.13-0.68c0.05-0.23,0.14-0.63,0.28-1.21c0.15-0.58,0.25-1.03,0.32-1.35
			c0.59-2.57,0.94-3.89,1.04-3.96c0.09-0.06,0.48-0.03,1.18,0.08c0.16,0.03,0.41,0.07,0.74,0.13c0.07,0.01,0.14,0.03,0.22,0.08
			c0.08,0.05,0.13,0.11,0.16,0.2c0.11,0.32,0.33,0.95,0.68,1.91c0.62,1.77,0.96,2.75,1.02,2.94c0.17,0.56,0.29,0.87,0.35,0.92
			l0.01,0c0.05,0.03,0.1-0.01,0.13-0.12c0.09-0.97,0.18-2.2,0.27-3.69c0.05-0.94,0.08-1.51,0.09-1.71c0.03-0.14,0.14-0.19,0.31-0.15
			c0.06,0.01,0.12,0.03,0.18,0.05C37.43,77.56,37.58,77.68,37.59,77.81z"/>
		<path d="M44.73,75.96c0.16-0.17,0.33-0.27,0.52-0.3c0.05-0.01,0.09-0.01,0.13-0.02c0.17,0,0.31,0.06,0.42,0.18
			c0.1,0.11,0.18,0.46,0.26,1.06c0.02,0.28,0.04,0.52,0.04,0.72c0,0.19-0.05,0.36-0.17,0.51c-0.06,0.09-0.2,0.27-0.4,0.53
			c-1.04,1.38-1.55,2.16-1.55,2.32c0,0.1,0.44,0.42,1.34,0.96c0.93,0.54,1.65,0.98,2.14,1.3c0.13,0.09,0.31,0.21,0.52,0.36
			c0.19,0.14,0.29,0.25,0.3,0.35c0,0.02,0,0.03-0.01,0.05c-0.06,0.59-0.14,1.05-0.23,1.38c-0.09,0.33-0.19,0.55-0.28,0.66
			c-0.07,0.07-0.16,0.12-0.28,0.15c-0.12,0.04-0.19,0.05-0.21,0.05c-0.02,0-0.05,0.01-0.1,0.02c-0.1,0-0.27-0.07-0.53-0.19
			c-0.26-0.11-0.71-0.38-1.34-0.78c-1.4-0.89-2.28-1.42-2.65-1.58c-0.03,0.01-0.06,0.03-0.1,0.04c-0.03,0.01-0.05,0.05-0.06,0.1
			c0.02,0.36,0.04,0.67,0.06,0.93c0.03,0.26,0.06,0.56,0.09,0.91c0.01,0.14,0.04,0.43,0.09,0.86c0.05,0.43,0.07,0.71,0.06,0.84
			c-0.02,0.12-0.13,0.23-0.33,0.32c-0.13,0.06-0.25,0.1-0.38,0.12c-0.08,0.01-0.15,0.02-0.22,0.02c-0.12,0-0.21-0.03-0.27-0.07
			c-0.06-0.05-0.1-0.14-0.12-0.27c0-0.02-0.01-0.03-0.01-0.04c-0.07-0.88-0.18-2.13-0.32-3.77c-0.15-1.64-0.25-3-0.29-4.06
			c-0.07-1.17-0.11-2.01-0.14-2.54c0.02-0.14,0.07-0.23,0.15-0.27c0.05-0.02,0.12-0.03,0.21-0.03c0.51,0.07,0.82,0.23,0.93,0.5
			c0.03,0.2,0.06,0.43,0.08,0.7c0.02,0.27,0.06,0.67,0.1,1.21c0.08,0,0.48-0.5,1.21-1.49c0.16-0.2,0.35-0.43,0.55-0.7
			c0.21-0.27,0.38-0.48,0.51-0.65C44.62,76.13,44.7,76.02,44.73,75.96z"/>
	</g>
</g>
</svg>
