<svg id="b42f42dc-036c-4ea4-a231-24be5bad590b" data-name="Layer 1" xmlns="http://www.w3.org/2000/svg" viewBox="0 0 141.7922 164.2373"><defs><style>.f25f1500-7e2b-4933-8896-6d6ed7c3b14c{fill:#e83d37;}</style></defs><path class="f25f1500-7e2b-4933-8896-6d6ed7c3b14c" d="M153.87485,34.33572c-15.69156-26.90965-52.64931-34.549-82.51834-17.068-29.869,17.41213-58.29278,82.86245-51.13522,95.11289,6.88226,11.83749,78.1137,19.68328,107.98271,2.20232C158.073,97.17079,169.56642,61.24537,153.87485,34.33572Z" transform="translate(-19.1039 -7.88135)"/><path class="f25f1500-7e2b-4933-8896-6d6ed7c3b14c" d="M100.95024,172.11865H37.15165a17.97562,17.97562,0,0,1-17.96271-17.96271h0a17.97562,17.97562,0,0,1,17.96271-17.96272h63.79859A17.97562,17.97562,0,0,1,118.913,154.15594h0A18.01976,18.01976,0,0,1,100.95024,172.11865Z" transform="translate(-19.1039 -7.88135)"/></svg>