<svg id="Layer_1" data-name="Layer 1" xmlns="http://www.w3.org/2000/svg" viewBox="0 0 80 80"><defs><style>.cls-1{fill:#656565;}</style></defs><g id="icon_toiletwc"><path class="cls-1" d="M47.83,58.45H32.17a1.5,1.5,0,0,0,0,3H47.83a1.5,1.5,0,0,0,0-3Z"/><path class="cls-1" d="M45.79,56.16a1.5,1.5,0,0,0,0-3H34.21a1.5,1.5,0,0,0,0,3Z"/><path class="cls-1" d="M59.4,17h-.93C56.83,12.79,48.38,10.61,40,10.61S23.17,12.79,21.53,17H20.6a1.5,1.5,0,0,0-1.5,1.5v8.08a1.5,1.5,0,0,0,1.5,1.5h.62V67.89a1.5,1.5,0,0,0,1.5,1.5H57.25a1.5,1.5,0,0,0,1.5-1.5V28.06h.65a1.5,1.5,0,0,0,1.5-1.5V18.48A1.5,1.5,0,0,0,59.4,17ZM55.75,66.39H24.22V28.06H55.75ZM40,13.61c7.37,0,12.68,1.68,14.78,3.37H25.22C27.32,15.29,32.63,13.61,40,13.61ZM22.1,20H57.9v5.08H22.1V20Z"/><path class="cls-1" d="M31.61,47.8h2.23a.47.47,0,0,0,.46-.38l.81-4c.15-.78.27-1.59.39-2.36h.07c.1.77.23,1.58.4,2.36l.83,4a.47.47,0,0,0,.46.38h2.28a.48.48,0,0,0,.47-.4l1.59-9.17a.47.47,0,0,0-.47-.55H39.79a.48.48,0,0,0-.47.4l-.59,4.21c-.12,1-.26,2.12-.38,3.21h-.07c-.21-1.09-.38-2.18-.59-3.21l-1-4.25a.47.47,0,0,0-.46-.36H35a.47.47,0,0,0-.46.36l-.95,4.25c-.21,1-.41,2.13-.6,3.21h-.05l-.41-3.21-.59-4.21a.46.46,0,0,0-.46-.4H29.94a.47.47,0,0,0-.47.55l1.68,9.18A.47.47,0,0,0,31.61,47.8Z"/><path class="cls-1" d="M47.36,48a4.19,4.19,0,0,0,3-1.19.48.48,0,0,0,0-.64l-.68-.81a.47.47,0,0,0-.66-.07,2.47,2.47,0,0,1-1.6.61c-1.42,0-2.35-1.17-2.35-3.18s1.07-3.14,2.38-3.14a2.27,2.27,0,0,1,1.42.5.47.47,0,0,0,.64-.08l.69-.84a.48.48,0,0,0-.08-.68,4.29,4.29,0,0,0-2.71-1c-2.57,0-4.83,1.94-4.83,5.31S44.79,48,47.36,48Z"/></g></svg>