<svg id="Layer_1" data-name="Layer 1" xmlns="http://www.w3.org/2000/svg" viewBox="0 0 80 80"><defs><style>.cls-1{fill:#656565;}</style></defs><g id="icon_cold"><path class="cls-1" d="M60.49,10.5h-41A6.5,6.5,0,0,0,13,17V31a6.5,6.5,0,0,0,6.49,6.49h41A6.5,6.5,0,0,0,67,31V17A6.5,6.5,0,0,0,60.49,10.5ZM64,31a3.49,3.49,0,0,1-3.49,3.49h-41A3.49,3.49,0,0,1,16,31V17a3.5,3.5,0,0,1,3.49-3.49h41A3.5,3.5,0,0,1,64,17Z"/><path class="cls-1" d="M21.82,20h3.29a1.5,1.5,0,0,0,0-3H21.82a1.5,1.5,0,0,0,0,3Z"/><path class="cls-1" d="M58.54,26.86H21.46a1.5,1.5,0,0,0,0,3H58.54a1.5,1.5,0,1,0,0-3Z"/><path class="cls-1" d="M36.65,49.4V41.31a1.5,1.5,0,0,0-3,0V49.4a3.48,3.48,0,1,1-3.48-3.48,1.5,1.5,0,0,0,0-3,6.48,6.48,0,1,0,6.48,6.48Z"/><path class="cls-1" d="M49.83,42.92a1.5,1.5,0,0,0,0,3,3.48,3.48,0,1,1-3.48,3.48V41.31a1.5,1.5,0,0,0-3,0V49.4a6.48,6.48,0,1,0,6.48-6.48Z"/><path class="cls-1" d="M40,39.81a1.5,1.5,0,0,0-1.5,1.5V63A3.48,3.48,0,1,1,35,59.54a1.5,1.5,0,0,0,0-3A6.48,6.48,0,1,0,41.5,63V41.31A1.5,1.5,0,0,0,40,39.81Z"/></g></svg>