<svg id="Layer_1" data-name="Layer 1" xmlns="http://www.w3.org/2000/svg" viewBox="0 0 80 80"><defs><style>.cls-1{fill:#656565;}</style></defs><g id="icon_kWh"><path class="cls-1" d="M68,35.53H60.47V25.47A10.32,10.32,0,0,0,50.16,15.16H48.41A10.32,10.32,0,0,0,38.09,25.47V54.53a7.31,7.31,0,0,1-14.62,0V52.89A3.83,3.83,0,0,0,27,49.09v-5a8.43,8.43,0,0,0,6.49-8.19V30.09A3.43,3.43,0,0,0,30,26.66H28.75V20.49a1.5,1.5,0,1,0-3,0v6.17H18.19V20.49a1.5,1.5,0,0,0-3,0v6.17H13.92a3.43,3.43,0,0,0-3.42,3.43v5.83A8.44,8.44,0,0,0,17,44.11v5a3.83,3.83,0,0,0,3.48,3.8v1.64a10.31,10.31,0,0,0,20.62,0V25.47a7.32,7.32,0,0,1,7.32-7.31h1.75a7.32,7.32,0,0,1,7.31,7.31V35.53H49.94a1.5,1.5,0,0,0-1.5,1.5V61.36a1.5,1.5,0,0,0,1.5,1.5H68a1.5,1.5,0,0,0,1.5-1.5V37A1.5,1.5,0,0,0,68,35.53ZM20,44.34h4v4.75a.84.84,0,0,1-.84.84H20.83a.85.85,0,0,1-.84-.84ZM13.5,35.92V30.09a.42.42,0,0,1,.42-.43H30a.42.42,0,0,1,.42.43v5.83A5.42,5.42,0,0,1,27,41a5.29,5.29,0,0,1-1.5.34l-.43,0h-6.1l-.43,0A5.29,5.29,0,0,1,17,41,5.42,5.42,0,0,1,13.5,35.92Zm53,23.94H51.44V38.53H66.5Z"/></g></svg>