<svg id="Layer_1" data-name="Layer 1" xmlns="http://www.w3.org/2000/svg" viewBox="0 0 80 80"><defs><style>.cls-1{fill:#656565;}</style></defs><g id="icon_gallery"><path class="cls-1" d="M63.52,17.15H23.36a1.5,1.5,0,0,0-1.5,1.5V32.06H16.48a1.5,1.5,0,0,0-1.5,1.5V61.35a1.5,1.5,0,0,0,1.5,1.5H51.19a1.5,1.5,0,0,0,1.5-1.5V52.93H63.52a1.5,1.5,0,0,0,1.5-1.5V18.65A1.5,1.5,0,0,0,63.52,17.15ZM49.69,59.85H18V35.06h3.88v5.71h0V51.43a1.5,1.5,0,0,0,1.5,1.5H49.69ZM24.86,32.06V20.15H62V41l-6.13-6.22a1.51,1.51,0,0,0-2-.13l-1.21.94-1.5,1.16-1.5,1.17L46.06,40.7l-5.55-5.64L39,33.56l-1.48-1.5-2.65-2.71a1.5,1.5,0,0,0-1.06-.44,1.31,1.31,0,0,0-1.07.43L30,32.06l-1.52,1.5L27,35.06l-2.15,2.12V32.06ZM49.69,49.93H24.86V41.4l.45-.44,6-5.9,1.52-1.5,1-1,1,1,1.47,1.5,7.56,7.68,1,1a1.49,1.49,0,0,0,2,.14l1-.77,1.86-1.44,1.5-1.16,1.5-1.16,2-1.55,6.51,6.59.83.84v4.69H49.69Z"/><path class="cls-1" d="M47.6,32.06a5.86,5.86,0,0,0,3.88,1.48,5.78,5.78,0,0,0,1.19-.13,5.88,5.88,0,1,0-5.07-1.35Zm3.88-7.27a2.88,2.88,0,1,1-2.87,2.88A2.88,2.88,0,0,1,51.48,24.79Z"/></g></svg>