<svg id="Layer_1" data-name="Layer 1" xmlns="http://www.w3.org/2000/svg" viewBox="0 0 80 80"><defs><style>.cls-1{fill:#656565;}</style></defs><g id="icon_cook"><path class="cls-1" d="M26.6,41.66A1.5,1.5,0,0,1,28.23,43l1,11.3A1.49,1.49,0,0,1,27.86,56h-.13a1.49,1.49,0,0,1-1.49-1.37l-1-11.3A1.5,1.5,0,0,1,26.6,41.66Z"/><path class="cls-1" d="M67.13,37h-4.7a1.47,1.47,0,0,0-1.49-1.5H18.87a1.5,1.5,0,0,0-1.11.48,1.53,1.53,0,0,0-.39,1h-4.5a2,2,0,1,0,0,4h4.84L19.07,56.8a6.13,6.13,0,0,0,6,6.2H54.75a6.13,6.13,0,0,0,6-6.2L62.1,41h5a2,2,0,0,0,0-4Zm-8,4L57.75,56.6a.62.62,0,0,0,0,.13,3.14,3.14,0,0,1-3,3.27H25.06a3.14,3.14,0,0,1-3-3.27.62.62,0,0,0,0-.13L20.72,41l-.22-2.5H59.31Z"/><path class="cls-1" d="M27.73,56h.13a1.49,1.49,0,0,0,1.36-1.63l-1-11.3a1.5,1.5,0,0,0-3,.27l1,11.3A1.49,1.49,0,0,0,27.73,56Z"/><path class="cls-1" d="M55.53,22.67H44.33V21.43a4.43,4.43,0,1,0-8.85,0v1.24H24.28a6.83,6.83,0,0,0-6.91,6.75v1.82a1.5,1.5,0,0,0,1.5,1.5H60.94a1.5,1.5,0,0,0,1.5-1.5V29.42A6.83,6.83,0,0,0,55.53,22.67ZM38.48,21.43a1.43,1.43,0,1,1,2.85,0v1.24H38.48Zm21,8.31H20.37v-.32a3.83,3.83,0,0,1,3.91-3.75H55.53a3.83,3.83,0,0,1,3.91,3.75Z"/></g></svg>