<svg id="Layer_1" data-name="Layer 1" xmlns="http://www.w3.org/2000/svg" viewBox="0 0 80 80"><defs><style>.cls-1{fill:#656565;}</style></defs><g id="icon_dress"><path class="cls-1" d="M52.87,26.29a3.85,3.85,0,0,0-.88-.11H47.15a1.51,1.51,0,0,0-1.46,1.13c-.39,1.55-2.1,2.76-4.22,3.16V23.56a6.62,6.62,0,1,0-8.12-6.44,1.5,1.5,0,0,0,3,0A3.62,3.62,0,1,1,40,20.74a1.5,1.5,0,0,0-1.5,1.5v8.22c-2.09-.41-3.78-1.62-4.16-3.15a1.51,1.51,0,0,0-1.46-1.13H28a3.85,3.85,0,0,0-.88.11A12.83,12.83,0,0,0,16,39v4.38a1.5,1.5,0,0,0,1.5,1.5H23.1l-1.21,23A1.52,1.52,0,0,0,22.3,69a1.5,1.5,0,0,0,1.09.47H56.61A1.5,1.5,0,0,0,57.7,69a1.52,1.52,0,0,0,.41-1.11l-1.21-23h5.65a1.5,1.5,0,0,0,1.5-1.5V39A12.83,12.83,0,0,0,52.87,26.29Zm8.18,15.6H55.32a1.5,1.5,0,0,0-1.5,1.58L55,66.5H25l1.21-23a1.5,1.5,0,0,0-1.5-1.58H19V39a9.82,9.82,0,0,1,8.65-9.75l.23-.05.18,0h3.81a8.61,8.61,0,0,0,6.65,4.33,11,11,0,0,0,1.53.11,11.83,11.83,0,0,0,1.47-.1,8.61,8.61,0,0,0,6.71-4.34H52l.18,0,.23.05A9.82,9.82,0,0,1,61.05,39Z"/><path class="cls-1" d="M41.44,40.61H38.56a1.5,1.5,0,0,0,0,3h2.88a1.5,1.5,0,0,0,0-3Z"/><path class="cls-1" d="M41.44,49.87H38.56a1.5,1.5,0,0,0,0,3h2.88a1.5,1.5,0,0,0,0-3Z"/></g></svg>