<svg id="Layer_1" data-name="Layer 1" xmlns="http://www.w3.org/2000/svg" viewBox="0 0 80 80"><defs><style>.cls-1{fill:#656565;}</style></defs><g id="icon_makeup"><path class="cls-1" d="M68,43.08H62.62V20.65a8.75,8.75,0,0,0-8.73-8.74H35.59a8.75,8.75,0,0,0-8.73,8.74V43.08H25.43V36.9a1.5,1.5,0,0,0-1.5-1.5h-1V34.13a1.5,1.5,0,0,0-3,0V35.4h-1a1.5,1.5,0,0,0-1.5,1.5v6.18H12a1.5,1.5,0,0,0-1.5,1.5V56.65a1.5,1.5,0,0,0,1.5,1.5h7.68v8.44a1.5,1.5,0,0,0,3,0V58.15H57.45v8.44a1.5,1.5,0,0,0,3,0V58.15H68a1.5,1.5,0,0,0,1.5-1.5V44.58A1.5,1.5,0,0,0,68,43.08ZM29.86,20.65a5.74,5.74,0,0,1,5.73-5.74h18.3a5.74,5.74,0,0,1,5.73,5.74V43.08H29.86ZM20.38,38.4h2.05v4.68H20.38ZM66.46,55.15H13.54V46.08H66.46Z"/><path class="cls-1" d="M44.72,49.12H35.1a1.5,1.5,0,0,0,0,3h9.62a1.5,1.5,0,0,0,0-3Z"/><path class="cls-1" d="M53.79,21.82a1.49,1.49,0,0,0-2.12,0L39.54,34a1.49,1.49,0,0,0,0,2.12,1.5,1.5,0,0,0,2.12,0L53.79,23.94A1.51,1.51,0,0,0,53.79,21.82Z"/><path class="cls-1" d="M54.75,27.22,48.58,33.4A1.5,1.5,0,0,0,49.64,36a1.51,1.51,0,0,0,1.06-.44l6.18-6.18a1.5,1.5,0,0,0-2.13-2.12Z"/></g></svg>