<svg id="Layer_1" data-name="Layer 1" xmlns="http://www.w3.org/2000/svg" viewBox="0 0 80 80"><defs><style>.cls-1{fill:#656565;}</style></defs><g id="icon_parking"><path class="cls-1" d="M57.64,40.73a1.5,1.5,0,0,1-.33-3,10.21,10.21,0,1,0-12.26-7.63,1.5,1.5,0,0,1-2.93.68A13.21,13.21,0,1,1,58,40.69,2.09,2.09,0,0,1,57.64,40.73Z"/><path class="cls-1" d="M65.08,45.55l-8.2-2.47a1.38,1.38,0,0,1-.66-.43l-5.63-6.56a6.18,6.18,0,0,0-4.71-2.16H22.59c-3.82,0-7.82,3.53-9.29,8.23l-1.94,6.16a18.57,18.57,0,0,0-.86,5.58c0,2,0,6.13,4.17,6.2a6.78,6.78,0,0,0,13.22,0H49a6.78,6.78,0,0,0,13.22,0h1.11A6.22,6.22,0,0,0,69.5,53.9V51.49A6.17,6.17,0,0,0,65.08,45.55Zm-40,13.06a3.81,3.81,0,1,1-.32-1.5A3.77,3.77,0,0,1,25.07,58.61Zm34,1.5a3.78,3.78,0,1,1,.31-1.5A3.8,3.8,0,0,1,59,60.11ZM66.5,53.9a3.21,3.21,0,0,1-3.21,3.21H62.18a6.78,6.78,0,0,0-13.22,0H27.89a6.78,6.78,0,0,0-13.22,0c-.75,0-1.17-.14-1.17-3.21a15.5,15.5,0,0,1,.72-4.68l1.94-6.16c1.19-3.79,4.27-6.13,6.43-6.13H45.88a3.16,3.16,0,0,1,2.43,1.12L54,44.61A4.38,4.38,0,0,0,56,46l8.21,2.47a3.2,3.2,0,0,1,2.28,3.07Z"/><path class="cls-1" d="M56.85,21.69H52.4a1.5,1.5,0,0,0-1.5,1.5v11a1.5,1.5,0,0,0,3,0V31h3a4.41,4.41,0,0,0,4.41-4.4v-.52A4.41,4.41,0,0,0,56.85,21.69Zm1.41,4.92A1.41,1.41,0,0,1,56.85,28h-3V24.69h3a1.41,1.41,0,0,1,1.41,1.4Z"/><path class="cls-1" d="M27.2,48.52H21.29a1.5,1.5,0,0,1,0-3H27.2a1.5,1.5,0,0,1,0,3Z"/><path class="cls-1" d="M46.3,48.52H34.81a1.5,1.5,0,0,1-1.5-1.5v-5.8a1.5,1.5,0,0,1,3,0v4.3h10a1.5,1.5,0,0,1,0,3Z"/></g></svg>