<svg id="Layer_1" data-name="Layer 1" xmlns="http://www.w3.org/2000/svg" viewBox="0 0 80 80"><defs><style>.cls-1{fill:#656565;}</style></defs><g id="icon_share"><path class="cls-1" d="M54.12,62.09H19.67a5.11,5.11,0,0,1-5.28-4.9v-29a5.11,5.11,0,0,1,5.28-4.9H28a1.5,1.5,0,0,1,0,3H19.67a2.12,2.12,0,0,0-2.28,1.9v29a2.12,2.12,0,0,0,2.28,1.9H54.12a2.12,2.12,0,0,0,2.28-1.9V51a1.5,1.5,0,0,1,3,0v6.19A5.1,5.1,0,0,1,54.12,62.09Z"/><path class="cls-1" d="M30.24,47.14a2.49,2.49,0,0,1-1-.21,2.57,2.57,0,0,1-1.59-2.39,19,19,0,0,1,19-19H49.5V20.5a2.61,2.61,0,0,1,1.66-2.42,2.58,2.58,0,0,1,2.85.68l10.93,12a2.58,2.58,0,0,1,0,3.48L54,46.29a2.65,2.65,0,0,1-2.84.67,2.57,2.57,0,0,1-1.67-2.42V39.48h-.8a23.39,23.39,0,0,0-16.63,6.89A2.59,2.59,0,0,1,30.24,47.14ZM46.63,28.56a16,16,0,0,0-16,15,26.34,26.34,0,0,1,18-7.07H51A1.5,1.5,0,0,1,52.5,38v5.51l10-11-10-11v5.51a1.5,1.5,0,0,1-1.5,1.5Zm5.16-7.78Z"/></g></svg>