<svg id="Layer_1" data-name="Layer 1" xmlns="http://www.w3.org/2000/svg" viewBox="0 0 80 80"><defs><style>.cls-1{fill:#656565;}</style></defs><g id="icon_hot"><path class="cls-1" d="M59,10.5H21.05A6.5,6.5,0,0,0,14.56,17V54.75a6.5,6.5,0,0,0,6.49,6.49h3.48V68a1.5,1.5,0,0,0,3,0V61.24H52.4V68a1.5,1.5,0,0,0,3,0V61.24H59a6.5,6.5,0,0,0,6.49-6.49V17A6.5,6.5,0,0,0,59,10.5Zm3.49,44.25A3.5,3.5,0,0,1,59,58.24H21.05a3.5,3.5,0,0,1-3.49-3.49V17a3.5,3.5,0,0,1,3.49-3.49H59A3.5,3.5,0,0,1,62.44,17Z"/><path class="cls-1" d="M32.08,21.13H47.85a1.5,1.5,0,0,0,0-3H32.08a1.5,1.5,0,0,0,0,3Z"/><path class="cls-1" d="M56.43,24.8H23.52A1.5,1.5,0,0,0,22,26.3V50a1.5,1.5,0,0,0,1.5,1.5H56.43a1.5,1.5,0,0,0,1.5-1.5V26.3A1.5,1.5,0,0,0,56.43,24.8ZM33.13,41.48c1.27,1.45,2,1.45,2.37,1.45a1.49,1.49,0,0,0,1.41-1,19.44,19.44,0,0,0,.71-4.21,6.94,6.94,0,0,1,1.13-3.21,3.06,3.06,0,0,0,1.69,1.62,7.79,7.79,0,0,1,2.12,4.45,1.49,1.49,0,0,0,2.25,1.25,9.11,9.11,0,0,0,1.51-1.11,11.83,11.83,0,0,1,0,7.72H33.53A8.24,8.24,0,0,1,33.13,41.48Zm21.8,7H49.5c1.68-6-1.43-11.3-1.58-11.55a1.5,1.5,0,0,0-2.75.43,1.49,1.49,0,0,1-.23.48c-.73-1.94-2-4-3.38-4.43a3.23,3.23,0,0,1-.38-1.54,1.51,1.51,0,0,0-2-1.4c-2.31.77-4.23,3.71-4.56,7,0,.34-.07.64-.11.92L34.32,38a1.48,1.48,0,0,0-1.16-.69,1.44,1.44,0,0,0-1.24.52,10.43,10.43,0,0,0-1.66,10.59H25V27.8H54.93Z"/></g></svg>